<svg xmlns="http://www.w3.org/2000/svg" width="600" height="600" viewBox="0 0 600 600" version="1.1"><path d="M 259.500 1 C 257.850 1.420, 254.678 1.817, 252.450 1.882 C 250.222 1.947, 247.972 2.409, 247.450 2.908 C 246.928 3.407, 244.250 4.053, 241.500 4.342 C 231.888 5.354, 217 8.930, 217 10.227 C 217 10.652, 215.452 11, 213.559 11 C 211.666 11, 209.840 11.450, 209.500 12 C 209.160 12.550, 207.614 13, 206.063 13 C 204.513 13, 202.685 13.675, 202 14.500 C 201.315 15.325, 199.712 16, 198.437 16 C 197.161 16, 195.840 16.450, 195.500 17 C 195.160 17.550, 194.078 18, 193.095 18 C 191.463 18, 187.178 19.686, 182.764 22.064 C 181.809 22.579, 180.346 23, 179.514 23 C 178.681 23, 178 23.450, 178 24 C 178 24.550, 176.912 25, 175.583 25 C 174.254 25, 173.017 25.337, 172.833 25.750 C 172.650 26.162, 168.450 28.501, 163.500 30.947 C 158.550 33.392, 154.275 35.645, 154 35.952 C 153.725 36.259, 150.912 37.841, 147.750 39.467 C 144.588 41.092, 142 42.777, 142 43.211 C 142 43.645, 141.540 44, 140.979 44 C 139.765 44, 131.646 49.171, 131.167 50.250 C 130.983 50.662, 130.196 51, 129.417 51 C 128.637 51, 128 51.450, 128 52 C 128 52.550, 127.433 53, 126.740 53 C 126.047 53, 124.359 54.012, 122.990 55.250 C 121.620 56.487, 118.700 58.842, 116.500 60.483 C 102.079 71.238, 79.436 92.687, 69.506 105 C 67.510 107.475, 65.335 110.175, 64.672 111 C 64.009 111.825, 62.124 114.300, 60.483 116.500 C 58.842 118.700, 56.488 121.620, 55.250 122.990 C 54.013 124.359, 53 126.047, 53 126.740 C 53 127.433, 52.550 128, 52 128 C 51.450 128, 51 128.637, 51 129.417 C 51 130.196, 50.663 130.983, 50.250 131.167 C 49.171 131.646, 44 139.765, 44 140.979 C 44 141.540, 43.559 142, 43.019 142 C 42.480 142, 41.756 143.125, 41.411 144.500 C 41.066 145.875, 40.492 147, 40.136 147 C 39.780 147, 38.852 148.463, 38.074 150.250 C 37.297 152.037, 36.376 153.725, 36.028 154 C 34.929 154.870, 25 175.280, 25 176.670 C 25 177.402, 24.550 178, 24 178 C 23.450 178, 23 178.833, 23 179.851 C 23 180.869, 21.875 183.818, 20.500 186.404 C 19.125 188.990, 18 191.955, 18 192.994 C 18 194.032, 17.550 195.160, 17 195.500 C 16.450 195.840, 15.986 197.104, 15.968 198.309 C 15.951 199.514, 15.276 201.374, 14.468 202.441 C 13.661 203.509, 13 205.395, 13 206.632 C 13 207.870, 12.550 209.160, 12 209.500 C 11.450 209.840, 11 211.448, 11 213.073 C 11 214.698, 10.599 216.809, 10.109 217.764 C 8.604 220.696, 6 230.527, 6 233.279 C 6 234.711, 5.550 236.160, 5 236.500 C 4.450 236.840, 4 239.476, 4 242.359 C 4 245.242, 3.616 248.028, 3.146 248.550 C 0.784 251.177, -0.173 270.511, 0.328 305.500 C 0.841 341.401, 1.387 350.651, 3.097 352.450 C 3.594 352.973, 4 355.758, 4 358.641 C 4 361.524, 4.402 364.131, 4.894 364.435 C 5.386 364.739, 6.024 366.678, 6.311 368.744 C 7.037 373.971, 9.350 382.683, 10.251 383.584 C 10.663 383.996, 11 385.582, 11 387.108 C 11 388.634, 11.450 390.160, 12 390.500 C 12.550 390.840, 13 392.409, 13 393.988 C 13 395.566, 13.675 397.532, 14.500 398.357 C 15.325 399.182, 16 400.763, 16 401.870 C 16 402.976, 16.450 404.160, 17 404.500 C 17.550 404.840, 18 405.922, 18 406.905 C 18 408.537, 19.686 412.822, 22.064 417.236 C 22.579 418.191, 23 419.654, 23 420.486 C 23 421.319, 23.450 422, 24 422 C 24.550 422, 25 423.087, 25 424.417 C 25 425.746, 25.338 426.983, 25.750 427.167 C 26.837 427.650, 30 433.912, 30 435.581 C 30 436.361, 30.337 437.002, 30.750 437.004 C 31.163 437.006, 32.332 439.031, 33.349 441.504 C 34.366 443.977, 35.604 446, 36.099 446 C 36.595 446, 37 446.900, 37 448 C 37 449.100, 37.337 450.005, 37.750 450.011 C 38.163 450.018, 39.360 451.818, 40.411 454.011 C 41.462 456.205, 42.699 458, 43.161 458 C 43.622 458, 44 458.460, 44 459.021 C 44 460.235, 49.171 468.354, 50.250 468.833 C 50.663 469.017, 51 469.804, 51 470.583 C 51 471.362, 51.450 472, 52 472 C 52.550 472, 53.007 472.563, 53.016 473.250 C 53.025 473.938, 54.299 475.937, 55.848 477.694 C 57.398 479.450, 59.753 482.485, 61.082 484.437 C 62.412 486.389, 63.837 487.989, 64.250 487.993 C 64.662 487.997, 65 488.637, 65 489.417 C 65 490.196, 65.337 490.983, 65.750 491.167 C 66.162 491.350, 69.425 494.861, 73 498.969 C 83.503 511.038, 99.537 526.639, 107.500 532.536 C 109.700 534.165, 112.772 536.736, 114.327 538.249 C 115.882 539.762, 117.508 541, 117.941 541 C 118.375 541, 120.252 542.343, 122.114 543.984 C 123.977 545.625, 126.063 546.975, 126.750 546.984 C 127.438 546.993, 128 547.450, 128 548 C 128 548.550, 128.627 549, 129.393 549 C 130.159 549, 131.045 549.675, 131.362 550.500 C 131.678 551.325, 132.626 552, 133.469 552 C 134.311 552, 135 552.450, 135 553 C 135 553.550, 135.520 554, 136.156 554 C 136.791 554, 138.704 555.048, 140.406 556.329 C 142.108 557.610, 144.963 559.295, 146.750 560.073 C 148.538 560.851, 150 561.728, 150 562.020 C 150 562.312, 152.021 563.440, 154.491 564.526 C 156.960 565.612, 158.985 566.837, 158.991 567.250 C 158.996 567.663, 159.684 568, 160.520 568 C 161.356 568, 163.822 569.125, 166 570.500 C 168.178 571.875, 170.644 573, 171.480 573 C 172.316 573, 173 573.450, 173 574 C 173 574.550, 174.125 575, 175.500 575 C 176.875 575, 178 575.450, 178 576 C 178 576.550, 178.718 577, 179.596 577 C 180.473 577, 182.611 577.739, 184.346 578.643 C 190.141 581.661, 190.964 582, 192.500 582 C 193.340 582, 194.809 582.395, 195.764 582.878 C 200.356 585.200, 205.252 587, 206.975 587 C 208.024 587, 209.160 587.450, 209.500 588 C 209.840 588.550, 211.390 589, 212.945 589 C 214.499 589, 217.060 589.672, 218.636 590.494 C 220.211 591.315, 222.423 591.990, 223.550 591.994 C 224.678 591.997, 226.028 592.404, 226.550 592.898 C 227.522 593.816, 232.245 594.657, 242 595.649 C 245.025 595.957, 247.725 596.565, 248 597 C 249.185 598.875, 268.838 599.994, 300.500 599.989 C 333.422 599.984, 351.447 598.953, 353.438 596.962 C 353.967 596.433, 356.470 596, 359 596 C 361.530 596, 364.028 595.596, 364.550 595.102 C 365.073 594.609, 367.300 593.979, 369.500 593.704 C 375.129 592.999, 382.325 591.059, 383.450 589.943 C 383.972 589.424, 385.666 589, 387.214 589 C 388.761 589, 390.809 588.610, 391.764 588.134 C 394.068 586.985, 399.944 584.925, 402.750 584.282 C 403.988 583.999, 405 583.369, 405 582.883 C 405 582.398, 405.906 582, 407.014 582 C 408.121 582, 409.809 581.582, 410.764 581.071 C 411.719 580.560, 414.636 579.323, 417.246 578.321 C 419.857 577.320, 421.994 576.163, 421.996 575.750 C 421.998 575.337, 423.125 575, 424.500 575 C 425.875 575, 427 574.550, 427 574 C 427 573.450, 427.639 573, 428.419 573 C 430.088 573, 436.350 569.837, 436.833 568.750 C 437.017 568.337, 437.917 567.967, 438.833 567.927 C 439.750 567.887, 441.850 566.993, 443.500 565.942 C 445.150 564.890, 447.400 563.581, 448.500 563.032 C 449.600 562.483, 452.300 560.895, 454.500 559.502 C 456.700 558.108, 459.288 556.698, 460.250 556.368 C 461.212 556.037, 462 555.369, 462 554.883 C 462 554.398, 462.675 554, 463.500 554 C 464.325 554, 465 553.550, 465 553 C 465 552.450, 465.567 552, 466.260 552 C 466.953 552, 468.734 550.875, 470.217 549.500 C 471.699 548.125, 473.137 547, 473.412 547 C 474.292 547, 484.912 539.318, 489.068 535.675 C 491.279 533.737, 494.725 530.880, 496.727 529.326 C 501.980 525.247, 524.837 502.378, 529.519 496.516 C 531.709 493.775, 534.723 490.158, 536.217 488.479 C 539.171 485.159, 547 474.220, 547 473.412 C 547 473.137, 548.125 471.699, 549.500 470.217 C 550.875 468.734, 552 466.953, 552 466.260 C 552 465.567, 552.450 465, 553 465 C 553.550 465, 554 464.325, 554 463.500 C 554 462.675, 554.343 462, 554.763 462 C 555.525 462, 555.798 461.555, 559.448 454.347 C 560.519 452.231, 561.677 450.275, 562.021 450 C 562.365 449.725, 562.956 448.825, 563.334 448 C 563.712 447.175, 564.884 445.150, 565.938 443.500 C 566.992 441.850, 567.887 439.750, 567.927 438.833 C 567.967 437.917, 568.337 437.017, 568.750 436.833 C 569.837 436.350, 573 430.088, 573 428.419 C 573 427.639, 573.450 427, 574 427 C 574.550 427, 575 425.875, 575 424.500 C 575 423.125, 575.450 422, 576 422 C 576.550 422, 577 421.361, 577 420.581 C 577 419.801, 577.751 417.663, 578.669 415.831 C 581.713 409.757, 582 409.039, 582 407.500 C 582 405.961, 582.287 405.243, 585.331 399.169 C 586.249 397.337, 587 394.776, 587 393.478 C 587 392.180, 587.450 390.840, 588 390.500 C 588.550 390.160, 589 388.649, 589 387.141 C 589 385.633, 589.424 383.972, 589.943 383.450 C 591.477 381.904, 594.631 368.160, 595.669 358.500 C 595.964 355.750, 596.621 352.989, 597.130 352.365 C 597.638 351.741, 598.333 348.239, 598.674 344.583 C 599.016 340.927, 599.679 337.699, 600.148 337.409 C 601.264 336.719, 601.261 262, 600.145 262 C 599.675 262, 599.020 258.780, 598.690 254.845 C 598.360 250.910, 597.620 247.220, 597.045 246.645 C 596.470 246.070, 596 243.530, 596 241 C 596 238.470, 595.596 235.972, 595.102 235.450 C 594.609 234.927, 593.979 232.700, 593.704 230.500 C 592.999 224.871, 591.059 217.675, 589.943 216.550 C 589.424 216.028, 589 214.142, 589 212.359 C 589 210.576, 588.550 208.840, 588 208.500 C 587.450 208.160, 587 207.045, 587 206.022 C 587 204.999, 586.249 202.663, 585.331 200.831 C 582.287 194.757, 582 194.039, 582 192.500 C 582 191.660, 581.582 190.191, 581.071 189.236 C 580.560 188.281, 579.323 185.364, 578.321 182.754 C 577.320 180.143, 576.163 178.006, 575.750 178.004 C 575.337 178.002, 575 176.875, 575 175.500 C 575 174.125, 574.550 173, 574 173 C 573.450 173, 573 172.361, 573 171.581 C 573 169.912, 569.837 163.650, 568.750 163.167 C 568.337 162.983, 568 161.971, 568 160.917 C 568 159.863, 567.550 159, 567 159 C 566.450 159, 566 158.155, 566 157.122 C 566 156.090, 565.325 154.685, 564.500 154 C 563.675 153.315, 563 152.135, 563 151.378 C 563 150.620, 562.660 150, 562.244 150 C 561.828 150, 560.851 148.538, 560.073 146.750 C 559.295 144.963, 557.610 142.108, 556.329 140.406 C 555.048 138.704, 554 136.791, 554 136.156 C 554 135.520, 553.550 135, 553 135 C 552.450 135, 552 134.311, 552 133.469 C 552 132.626, 551.325 131.678, 550.500 131.362 C 549.675 131.045, 549 130.159, 549 129.393 C 549 128.627, 548.550 128, 548 128 C 547.450 128, 547 127.573, 547 127.051 C 547 125.385, 533.655 107, 532.445 107 C 531.805 107, 529.306 108.571, 526.891 110.490 C 524.476 112.410, 522.143 113.985, 521.706 113.990 C 521.270 113.996, 519.699 115.125, 518.217 116.500 C 516.734 117.875, 514.953 119, 514.260 119 C 513.567 119, 513 119.450, 513 120 C 513 120.550, 512.518 121, 511.929 121 C 511.339 121, 510.230 121.562, 509.463 122.250 C 506.154 125.218, 505.023 126, 504.042 126 C 503.469 126, 503 126.420, 503 126.933 C 503 127.446, 502.212 128.118, 501.250 128.427 C 500.288 128.735, 498.193 130.116, 496.594 131.494 C 494.996 132.872, 493.337 134, 492.906 134 C 492.476 134, 490.645 135.350, 488.839 137 C 487.032 138.650, 484.980 140, 484.277 140 C 483.575 140, 483 140.379, 483 140.843 C 483 141.306, 481.425 142.533, 479.500 143.570 C 477.575 144.607, 476 145.802, 476 146.227 C 476 146.652, 475.325 147, 474.500 147 C 473.675 147, 473 147.348, 473 147.773 C 473 148.198, 471.425 149.393, 469.500 150.430 C 467.575 151.467, 466 152.694, 466 153.157 C 466 153.621, 465.325 154, 464.500 154 C 463.675 154, 463 154.348, 463 154.773 C 463 155.198, 461.425 156.393, 459.500 157.430 C 457.575 158.467, 456 159.639, 456 160.036 C 456 160.433, 454.639 161.321, 452.976 162.010 C 451.313 162.699, 449.626 163.789, 449.226 164.434 C 448.827 165.078, 447.109 166.481, 445.408 167.552 C 435.185 173.991, 432.985 175.661, 431.808 177.871 C 430.771 179.819, 430.759 180.414, 431.750 180.747 C 432.438 180.978, 433 181.804, 433 182.583 C 433 183.363, 433.450 184, 434 184 C 434.550 184, 435 184.567, 435 185.260 C 435 185.953, 436.125 187.734, 437.500 189.217 C 438.875 190.699, 440 192.189, 440 192.527 C 440 193.175, 448.997 206.143, 450.041 207 C 450.376 207.275, 451.501 208.963, 452.541 210.750 C 453.581 212.538, 454.784 214, 455.216 214 C 455.647 214, 456 214.685, 456 215.521 C 456 216.358, 457.086 217.538, 458.413 218.142 C 460.478 219.083, 461.235 218.863, 463.653 216.621 C 465.208 215.179, 467.009 214, 467.656 214 C 468.304 214, 468.983 213.662, 469.167 213.250 C 469.706 212.036, 476.770 207, 477.933 207 C 478.520 207, 479 206.647, 479 206.216 C 479 205.784, 480.462 204.581, 482.250 203.541 C 484.038 202.501, 485.725 201.355, 486 200.994 C 486.700 200.075, 506.956 186, 507.578 186 C 507.858 186, 509.301 184.875, 510.783 183.500 C 512.266 182.125, 513.854 181, 514.311 181 C 514.769 181, 515.818 180.325, 516.643 179.500 C 517.468 178.675, 518.516 178, 518.972 178 C 519.739 178, 531 199.859, 531 201.347 C 531 201.711, 532.125 204.342, 533.500 207.192 C 534.875 210.042, 536 213.164, 536 214.128 C 536 215.093, 536.450 216.160, 537 216.500 C 537.550 216.840, 538 218.130, 538 219.368 C 538 220.605, 538.661 222.491, 539.468 223.559 C 540.276 224.626, 540.951 226.711, 540.968 228.191 C 540.986 229.671, 541.450 231.160, 542 231.500 C 542.550 231.840, 543 233.816, 543 235.892 C 543 237.968, 543.337 240.003, 543.750 240.414 C 544.764 241.423, 547.050 252.225, 547.683 259 C 547.966 262.025, 548.703 265.117, 549.321 265.871 C 550.885 267.777, 550.864 331.249, 549.299 333.152 C 548.689 333.893, 547.964 337.200, 547.688 340.500 C 547.117 347.306, 545.225 356.650, 543.894 359.236 C 543.402 360.191, 543 362.554, 543 364.486 C 543 366.419, 542.550 368, 542 368 C 541.450 368, 541 369.168, 541 370.596 C 541 372.023, 540.382 374.386, 539.627 375.846 C 537.869 379.246, 536 385.159, 536 387.321 C 536 388.244, 535.550 389, 535 389 C 534.450 389, 534 389.663, 534 390.473 C 534 393.104, 521.497 419.438, 516.292 427.769 C 514.481 430.668, 513 433.250, 513 433.508 C 513 434.059, 500.912 451.265, 500.009 452 C 499.671 452.275, 498.071 454.300, 496.453 456.500 C 494.835 458.700, 493.283 460.725, 493.005 461 C 492.726 461.275, 489.573 464.875, 485.999 469 C 482.425 473.125, 478.869 476.994, 478.097 477.598 C 477.259 478.255, 477.019 479.222, 477.502 480.003 C 478.042 480.878, 477.918 481.067, 477.125 480.577 C 476.205 480.009, 466.261 487.672, 461 493.005 C 460.725 493.283, 458.700 494.835, 456.500 496.453 C 454.300 498.071, 452.275 499.671, 452 500.009 C 451.265 500.912, 434.059 513, 433.508 513 C 433.250 513, 430.668 514.494, 427.769 516.320 C 422.548 519.609, 403.203 529.279, 395.500 532.450 C 393.300 533.356, 390.719 534.525, 389.764 535.048 C 388.809 535.572, 387.148 536, 386.073 536 C 384.998 536, 383.840 536.450, 383.500 537 C 383.160 537.550, 381.870 538, 380.632 538 C 379.395 538, 377.509 538.661, 376.441 539.468 C 375.374 540.276, 373.289 540.951, 371.809 540.968 C 370.329 540.986, 368.840 541.450, 368.500 542 C 368.160 542.550, 366.135 543, 364 543 C 361.865 543, 359.872 543.397, 359.572 543.883 C 359.272 544.369, 356.553 545.075, 353.529 545.453 C 350.505 545.831, 347.773 546.558, 347.457 547.070 C 347.141 547.581, 344.299 548, 341.141 548 C 337.950 548, 334.857 548.543, 334.177 549.223 C 332.521 550.879, 268.857 550.951, 266.848 549.299 C 266.107 548.689, 262.800 547.965, 259.500 547.690 C 256.200 547.414, 250.575 546.424, 247 545.490 C 243.425 544.555, 238.810 543.565, 236.744 543.290 C 234.678 543.014, 232.739 542.386, 232.435 541.894 C 232.131 541.402, 230.740 541, 229.345 541 C 227.950 541, 225.614 540.382, 224.154 539.627 C 220.754 537.869, 214.841 536, 212.679 536 C 211.756 536, 211 535.550, 211 535 C 211 534.450, 210.337 534, 209.527 534 C 206.866 534, 174.439 518.445, 172 515.998 C 171.725 515.723, 170.150 514.823, 168.500 514 C 166.850 513.177, 165.140 511.940, 164.700 511.252 C 164.260 510.563, 163.418 510, 162.827 510 C 161.853 510, 149.188 501.465, 148 500.007 C 147.725 499.670, 145.700 498.070, 143.500 496.452 C 133.704 489.246, 111.316 466.835, 103.541 456.451 C 101.914 454.278, 100.227 452.350, 99.791 452.167 C 99.356 451.983, 99 451.233, 99 450.500 C 99 449.767, 98.655 449.017, 98.233 448.833 C 97.258 448.410, 90 438.462, 90 437.549 C 90 437.174, 88.875 435.392, 87.500 433.589 C 86.125 431.786, 85 429.791, 85 429.156 C 85 428.520, 84.662 427.996, 84.250 427.992 C 83.838 427.988, 83.001 426.975, 82.391 425.742 C 81.782 424.509, 79.020 419, 76.255 413.500 C 73.489 408, 70.456 401.700, 69.514 399.500 C 68.573 397.300, 66.947 393.670, 65.901 391.434 C 64.855 389.198, 64 386.637, 64 385.743 C 64 384.849, 63.550 383.840, 63 383.500 C 62.450 383.160, 62 381.835, 62 380.555 C 62 379.276, 61.328 376.940, 60.506 375.364 C 59.685 373.789, 59.010 371.488, 59.006 370.250 C 59.003 369.012, 58.550 368, 58 368 C 57.450 368, 57 366.227, 57 364.059 C 57 361.891, 56.550 359.840, 56 359.500 C 55.450 359.160, 54.995 357.446, 54.989 355.691 C 54.983 353.936, 54.308 350.291, 53.489 347.591 C 52.670 344.891, 52 340.755, 52 338.400 C 52 336.045, 51.550 333.840, 51 333.500 C 49.711 332.703, 49.623 267, 50.911 267 C 51.412 267, 52.019 264.413, 52.259 261.250 C 52.759 254.661, 54.803 244.320, 56.112 241.764 C 56.600 240.809, 57 238.473, 57 236.573 C 57 234.673, 57.450 232.840, 58 232.500 C 58.550 232.160, 59.003 230.896, 59.006 229.691 C 59.010 228.486, 59.685 226.211, 60.506 224.636 C 61.328 223.060, 62 220.949, 62 219.945 C 62 218.940, 62.450 217.840, 63 217.500 C 63.550 217.160, 64 216.045, 64 215.022 C 64 213.999, 64.633 211.888, 65.407 210.331 C 66.740 207.651, 68.007 204.689, 70.256 199 C 70.799 197.625, 71.943 195.150, 72.798 193.500 C 73.653 191.850, 74.664 189.825, 75.045 189 C 75.426 188.175, 77.001 185.025, 78.545 182 C 80.090 178.975, 81.836 175.491, 82.427 174.258 C 83.017 173.025, 83.838 172.012, 84.250 172.008 C 84.662 172.004, 85 171.480, 85 170.844 C 85 170.209, 86.125 168.214, 87.500 166.411 C 88.875 164.608, 90 162.826, 90 162.451 C 90 161.800, 96.813 152.049, 98 151 C 98.311 150.725, 100.325 148.025, 102.474 145 C 107.538 137.874, 137.874 107.538, 145 102.474 C 148.025 100.325, 150.725 98.311, 151 98 C 152.049 96.813, 161.800 90, 162.451 90 C 162.826 90, 164.608 88.875, 166.411 87.500 C 168.214 86.125, 170.209 85, 170.844 85 C 171.480 85, 172.004 84.662, 172.008 84.250 C 172.012 83.838, 173.025 83.017, 174.258 82.427 C 176.254 81.471, 181.261 78.931, 190.500 74.188 C 194.561 72.102, 196.065 71.405, 199 70.246 C 200.375 69.703, 203.981 68.076, 207.014 66.629 C 210.047 65.183, 213.283 64, 214.205 64 C 215.127 64, 216.160 63.550, 216.500 63 C 216.840 62.450, 218.165 62, 219.445 62 C 220.724 62, 223.060 61.328, 224.636 60.506 C 226.211 59.685, 228.512 59.010, 229.750 59.006 C 230.988 59.003, 232 58.550, 232 58 C 232 57.450, 233.773 57, 235.941 57 C 238.109 57, 240.160 56.550, 240.500 56 C 240.840 55.450, 242.195 55, 243.510 55 C 244.826 55, 248.494 54.325, 251.661 53.500 C 254.829 52.675, 259.036 52, 261.010 52 C 262.985 52, 265.027 51.574, 265.550 51.053 C 266.072 50.532, 273.025 49.901, 281 49.650 C 288.975 49.400, 297.360 48.884, 299.633 48.503 C 302.265 48.063, 304.011 48.210, 304.442 48.906 C 304.881 49.616, 310.168 50, 319.500 50 C 328.009 50, 334.134 50.408, 334.500 51 C 334.840 51.550, 336.797 52, 338.849 52 C 340.901 52, 345.171 52.675, 348.339 53.500 C 351.506 54.325, 355.174 55, 356.490 55 C 357.805 55, 359.160 55.450, 359.500 56 C 359.840 56.550, 361.865 57, 364 57 C 366.135 57, 368.128 57.398, 368.429 57.885 C 368.729 58.371, 370.219 58.995, 371.738 59.270 C 374.706 59.809, 380.415 61.727, 383.236 63.134 C 384.191 63.610, 385.541 64.004, 386.236 64.009 C 386.931 64.014, 389.750 65.125, 392.500 66.478 C 395.250 67.831, 398.261 68.952, 399.191 68.969 C 400.121 68.986, 401.160 69.450, 401.500 70 C 401.840 70.550, 402.954 71, 403.976 71 C 404.997 71, 405.983 71.337, 406.167 71.750 C 406.650 72.837, 412.912 76, 414.581 76 C 415.361 76, 416 76.398, 416 76.883 C 416 77.369, 416.788 78.015, 417.750 78.319 C 419.738 78.947, 427.242 83.185, 428 84.109 C 428.275 84.444, 430.132 85.302, 432.127 86.015 L 435.753 87.313 447.874 78.906 C 454.540 74.283, 459.805 69.988, 459.572 69.363 C 459.326 68.701, 459.864 68.413, 460.863 68.674 C 461.805 68.921, 463.708 68.082, 465.091 66.811 C 466.475 65.540, 468.708 63.911, 470.054 63.192 C 474.973 60.560, 477.178 58.137, 476.525 56.079 C 476.180 54.992, 475.021 53.824, 473.949 53.484 C 472.877 53.144, 472 52.446, 472 51.933 C 472 51.420, 471.363 51, 470.583 51 C 469.804 51, 469.017 50.663, 468.833 50.250 C 468.354 49.171, 460.235 44, 459.021 44 C 458.460 44, 458 43.645, 458 43.211 C 458 42.777, 455.413 41.092, 452.250 39.467 C 449.087 37.841, 446.275 36.217, 446 35.858 C 445.725 35.499, 443.587 34.378, 441.250 33.367 C 438.913 32.356, 437 31.184, 437 30.764 C 437 30.344, 436.392 30, 435.649 30 C 434.906 30, 432.182 28.875, 429.596 27.500 C 427.010 26.125, 424.243 25, 423.447 25 C 422.651 25, 422 24.550, 422 24 C 422 23.450, 421.167 23, 420.149 23 C 419.131 23, 416.182 21.875, 413.596 20.500 C 411.010 19.125, 408.045 18, 407.006 18 C 405.968 18, 404.840 17.550, 404.500 17 C 404.160 16.450, 402.896 15.986, 401.691 15.968 C 400.486 15.951, 398.626 15.276, 397.559 14.468 C 396.491 13.661, 394.605 13, 393.368 13 C 392.130 13, 390.840 12.550, 390.500 12 C 390.160 11.450, 388.409 11, 386.608 11 C 384.807 11, 383.012 10.678, 382.618 10.285 C 381.100 8.766, 366.070 5.082, 358.500 4.372 C 355.750 4.114, 352.600 3.530, 351.500 3.073 C 345.882 0.740, 332.792 0.007, 298.731 0.118 C 278.804 0.183, 261.150 0.580, 259.500 1 M 289.514 186.786 C 283.471 186.944, 278.094 187.506, 277.564 188.036 C 277.034 188.566, 275.358 189, 273.840 189 C 270.354 189, 260 192.146, 260 193.206 C 260 193.643, 258.875 194, 257.500 194 C 256.125 194, 255 194.450, 255 195 C 255 195.550, 253.875 196, 252.500 196 C 251.125 196, 250 196.450, 250 197 C 250 197.550, 249.380 198, 248.622 198 C 247.865 198, 246.685 198.675, 246 199.500 C 245.315 200.325, 243.910 201, 242.878 201 C 241.845 201, 241 201.450, 241 202 C 241 202.550, 240.433 203, 239.740 203 C 239.047 203, 237.266 204.125, 235.783 205.500 C 234.301 206.875, 232.824 208, 232.501 208 C 231.848 208, 230.087 209.393, 226.497 212.750 C 225.174 213.988, 223.898 215, 223.663 215 C 223.105 215, 215 223.105, 215 223.663 C 215 223.898, 213.987 225.174, 212.750 226.497 C 209.393 230.087, 208 231.848, 208 232.501 C 208 232.824, 206.875 234.301, 205.500 235.783 C 204.125 237.266, 203 239.047, 203 239.740 C 203 240.433, 202.550 241, 202 241 C 201.450 241, 201 241.845, 201 242.878 C 201 243.910, 200.325 245.315, 199.500 246 C 198.675 246.685, 198 247.865, 198 248.622 C 198 249.380, 197.550 250, 197 250 C 196.450 250, 196 251.125, 196 252.500 C 196 253.875, 195.550 255, 195 255 C 194.450 255, 194 256.125, 194 257.500 C 194 258.875, 193.555 260, 193.012 260 C 192.468 260, 191.734 261.810, 191.380 264.022 C 191.027 266.234, 190.346 268.286, 189.869 268.581 C 189.391 268.876, 189 270.865, 189 273 C 189 275.135, 188.550 277.160, 188 277.500 C 187.383 277.882, 187 286.491, 187 300 C 187 313.509, 187.383 322.118, 188 322.500 C 188.550 322.840, 189 324.865, 189 327 C 189 329.135, 189.391 331.124, 189.869 331.419 C 190.346 331.714, 191.027 333.766, 191.380 335.978 C 191.734 338.190, 192.468 340, 193.012 340 C 193.555 340, 194 341.098, 194 342.441 C 194 343.784, 194.450 345.160, 195 345.500 C 195.550 345.840, 196 346.991, 196 348.059 C 196 349.127, 196.401 350, 196.892 350 C 197.382 350, 198.066 351.125, 198.411 352.500 C 198.756 353.875, 199.480 355, 200.019 355 C 200.559 355, 201 355.900, 201 357 C 201 358.100, 201.450 359, 202 359 C 202.550 359, 203 359.480, 203 360.067 C 203 361.230, 208.036 368.294, 209.250 368.833 C 209.662 369.017, 210 369.743, 210 370.448 C 210 371.889, 227.765 390, 229.179 390 C 229.678 390, 231.305 391.134, 232.794 392.520 C 234.282 393.906, 236.738 395.591, 238.250 396.264 C 239.763 396.937, 241 397.828, 241 398.244 C 241 398.660, 241.620 399, 242.378 399 C 243.135 399, 244.315 399.675, 245 400.500 C 245.685 401.325, 247.090 402, 248.122 402 C 249.155 402, 250 402.450, 250 403 C 250 403.550, 251.125 404, 252.500 404 C 253.875 404, 255 404.450, 255 405 C 255 405.550, 255.787 406.014, 256.750 406.032 C 257.712 406.049, 259.374 406.724, 260.441 407.532 C 261.509 408.339, 263.620 409, 265.132 409 C 266.645 409, 268.160 409.450, 268.500 410 C 268.840 410.550, 270.576 411, 272.359 411 C 274.142 411, 276.162 411.563, 276.850 412.250 C 277.774 413.174, 283.813 413.500, 300 413.500 C 316.186 413.500, 322.226 413.174, 323.150 412.250 C 323.837 411.563, 326.083 411, 328.141 411 C 330.199 411, 332.160 410.550, 332.500 410 C 332.840 409.450, 334.035 409, 335.155 409 C 336.275 409, 338.386 408.380, 339.846 407.622 C 341.306 406.864, 343.625 405.785, 345 405.224 C 347.530 404.192, 353.609 401.322, 357.097 399.513 C 358.144 398.970, 359 398.182, 359 397.763 C 359 397.343, 359.482 397, 360.071 397 C 363.547 397, 383.322 379.801, 389.724 371.209 C 391.245 369.169, 392.750 367.275, 393.070 367 C 393.389 366.725, 394.517 364.925, 395.575 363 C 396.634 361.075, 397.725 359.275, 398 359 C 399.376 357.624, 402.709 351.164, 405.224 345 C 405.785 343.625, 406.864 341.306, 407.622 339.846 C 408.380 338.386, 409 336.275, 409 335.155 C 409 334.035, 409.450 332.840, 410 332.500 C 410.550 332.160, 411 330.327, 411 328.427 C 411 326.527, 411.435 324.191, 411.966 323.236 C 414.807 318.131, 414.748 279.580, 411.895 276.550 C 411.403 276.028, 411 274.484, 411 273.121 C 411 270.242, 409.404 264.722, 407.400 260.669 C 406.630 259.112, 406 257.199, 406 256.419 C 406 255.639, 405.550 255, 405 255 C 404.450 255, 404 253.875, 404 252.500 C 404 251.125, 403.550 250, 403 250 C 402.450 250, 402 249.155, 402 248.122 C 402 247.090, 401.325 245.685, 400.500 245 C 399.675 244.315, 399 243.135, 399 242.378 C 399 241.620, 398.550 241, 398 241 C 397.450 241, 397 240.518, 397 239.929 C 397 237.882, 387.860 226.067, 380.864 219.071 C 374.151 212.358, 361.974 203, 359.952 203 C 359.428 203, 359 202.651, 359 202.224 C 359 201.797, 356.979 200.560, 354.509 199.474 C 352.040 198.388, 350.015 197.162, 350.009 196.750 C 350.004 196.338, 349.127 196, 348.059 196 C 346.991 196, 345.813 195.507, 345.441 194.904 C 345.068 194.301, 343.513 193.991, 341.985 194.215 C 340.242 194.471, 339.364 194.214, 339.629 193.525 C 340.078 192.354, 330.465 189, 326.660 189 C 325.417 189, 323.973 188.593, 323.450 188.096 C 322.339 187.039, 305.204 186.377, 289.514 186.786 M 0 300.500 C 0 321.308, 0.242 338.092, 0.537 337.796 C 1.241 337.092, 1.244 263.910, 0.540 263.207 C 0.243 262.910, 0 279.692, 0 300.500 M 290.750 265.663 C 288.688 265.915, 287 266.544, 287 267.060 C 287 267.577, 286.273 268, 285.384 268 C 281.157 268, 268 281.116, 268 285.330 C 268 286.157, 267.457 287.014, 266.793 287.236 C 265.948 287.517, 265.574 291.080, 265.543 299.135 C 265.504 309.478, 265.751 311.121, 268 315.512 C 271.195 321.749, 278.250 328.804, 284.488 332 C 288.840 334.230, 290.584 334.500, 300.634 334.500 C 308.315 334.500, 312.299 334.102, 313.151 333.250 C 313.838 332.563, 314.980 332, 315.689 332 C 318.800 332, 332 318.800, 332 315.689 C 332 314.980, 332.398 313.972, 332.883 313.450 C 333.369 312.927, 334.247 309.688, 334.833 306.250 C 335.921 299.878, 334.806 288.618, 332.883 286.550 C 332.398 286.028, 332 285.020, 332 284.311 C 332 282.778, 329.783 279.855, 324.964 275.036 C 320.145 270.217, 317.222 268, 315.689 268 C 314.980 268, 313.925 267.525, 313.344 266.944 C 312.197 265.797, 296.804 264.924, 290.750 265.663" stroke="none" fill="#ffffff" fill-rule="evenodd"/><path d="" stroke="none" fill="#fffcfc" fill-rule="evenodd"/></svg>