<?xml version="1.0" encoding="UTF-8"?>
<!DOCTYPE svg PUBLIC "-//W3C//DTD SVG 1.1//EN" "http://www.w3.org/Graphics/SVG/1.1/DTD/svg11.dtd">
<svg xmlns="http://www.w3.org/2000/svg" version="1.1" width="256px" height="256px" style="shape-rendering:geometricPrecision; text-rendering:geometricPrecision; image-rendering:optimizeQuality; fill-rule:evenodd; clip-rule:evenodd" xmlns:xlink="http://www.w3.org/1999/xlink">
<g><path style="opacity:0.02" fill="#201d1e" d="M 177.5,55.5 C 179.898,55.2594 181.898,55.9261 183.5,57.5C 181.833,57.5 180.167,57.5 178.5,57.5C 177.833,57.5 177.5,57.1667 177.5,56.5C 177.5,56.1667 177.5,55.8333 177.5,55.5 Z"/></g>
<g><path style="opacity:0.578" fill="#bee5fd" d="M 32.5,60.5 C 39.1667,60.5 45.8333,60.5 52.5,60.5C 51.2689,61.7177 50.1022,63.051 49,64.5C 48.5003,72.8267 48.3336,81.16 48.5,89.5C 42.527,90.9832 36.8603,93.3166 31.5,96.5C 30.3342,85.5151 30.1676,74.5151 31,63.5C 32.0386,62.7562 32.5386,61.7562 32.5,60.5 Z"/></g>
<g><path style="opacity:0.944" fill="#addbf7" d="M 153.5,56.5 C 158.316,57.3261 163.316,57.8261 168.5,58C 169.823,58.8159 170.489,59.9826 170.5,61.5C 163.532,62.8307 156.198,63.4974 148.5,63.5C 127.259,63.8184 106.092,64.4851 85,65.5C 84.6667,65.1667 84.3333,64.8333 84,64.5C 78.0678,65.9229 74.9011,69.5896 74.5,75.5C 68.8089,79.0134 63.4755,83.0134 58.5,87.5C 57.5,88.1667 56.5,88.8333 55.5,89.5C 53.2743,88.2437 50.941,88.2437 48.5,89.5C 48.3336,81.16 48.5003,72.8267 49,64.5C 50.1022,63.051 51.2689,61.7177 52.5,60.5C 85.9696,58.2885 119.636,56.9551 153.5,56.5 Z"/></g>
<g><path style="opacity:1" fill="#d8eaf6" d="M 153.5,56.5 C 158.833,56.5 164.167,56.5 169.5,56.5C 171.425,60.0076 174.425,61.341 178.5,60.5C 178.5,62.5 178.5,64.5 178.5,66.5C 176.5,66.5 174.5,66.5 172.5,66.5C 172.5,68.1667 172.5,69.8333 172.5,71.5C 172.5,101.167 172.5,130.833 172.5,160.5C 172.5,174.833 172.5,189.167 172.5,203.5C 172.666,212.506 172.5,221.506 172,230.5C 171.626,231.416 171.126,232.25 170.5,233C 166.179,233.499 161.846,233.666 157.5,233.5C 156.833,233.5 156.167,233.5 155.5,233.5C 152.742,232.033 153.075,231.367 156.5,231.5C 160.49,232.19 164.49,232.357 168.5,232C 169.381,231.292 170.047,230.458 170.5,229.5C 171.498,200.671 171.831,171.671 171.5,142.5C 171.831,115.328 171.498,88.3282 170.5,61.5C 170.489,59.9826 169.823,58.8159 168.5,58C 163.316,57.8261 158.316,57.3261 153.5,56.5 Z"/></g>
<g><path style="opacity:0.626" fill="#63a6d6" d="M 177.5,55.5 C 177.5,55.8333 177.5,56.1667 177.5,56.5C 174.833,56.5 172.167,56.5 169.5,56.5C 164.167,56.5 158.833,56.5 153.5,56.5C 119.636,56.9551 85.9696,58.2885 52.5,60.5C 45.8333,60.5 39.1667,60.5 32.5,60.5C 29.3484,59.9586 26.8484,60.9586 25,63.5C 24.5001,75.8288 24.3335,88.1622 24.5,100.5C 24.3333,137.168 24.5,173.835 25,210.5C 26.214,212.049 27.714,213.215 29.5,214C 36.9806,215.296 44.4806,216.463 52,217.5C 53.3756,217.684 54.2089,218.351 54.5,219.5C 45.471,218.746 36.471,217.746 27.5,216.5C 26.5084,216.672 25.8417,216.338 25.5,215.5C 24.8333,214.167 24.1667,212.833 23.5,211.5C 22.3386,162.571 22.1719,113.571 23,64.5C 23.427,60.4729 25.5936,57.9729 29.5,57C 78.8657,55.3654 128.199,54.8654 177.5,55.5 Z"/></g>
<g><path style="opacity:0.898" fill="#b9e3fc" d="M 170.5,61.5 C 171.498,88.3282 171.831,115.328 171.5,142.5C 170.079,139.991 168.412,137.657 166.5,135.5C 166.443,134.391 166.11,133.391 165.5,132.5C 162.341,103.183 147.007,83.3493 119.5,73C 104.191,69.0613 89.191,69.8946 74.5,75.5C 74.9011,69.5896 78.0678,65.9229 84,64.5C 84.3333,64.8333 84.6667,65.1667 85,65.5C 106.092,64.4851 127.259,63.8184 148.5,63.5C 156.198,63.4974 163.532,62.8307 170.5,61.5 Z"/></g>
<g><path style="opacity:1" fill="#83bee2" d="M 178.5,57.5 C 180.167,57.5 181.833,57.5 183.5,57.5C 192.204,57.8735 200.871,58.7068 209.5,60C 210.333,60.8333 211.167,61.6667 212,62.5C 212.499,67.1548 212.666,71.8215 212.5,76.5C 210.621,75.6586 208.621,75.3253 206.5,75.5C 206.665,72.1501 206.498,68.8168 206,65.5C 205.535,64.0692 204.701,62.9025 203.5,62C 198.652,62.0506 193.985,61.8839 189.5,61.5C 188.71,60.5987 187.71,59.9321 186.5,59.5C 183.833,58.8333 181.167,58.1667 178.5,57.5 Z"/></g>
<g><path style="opacity:1" fill="#f8ac63" d="M 116.5,75.5 C 135.745,84.4234 148.745,99.09 155.5,119.5C 147.194,111.351 137.86,104.685 127.5,99.5C 107.197,89.0562 85.5305,84.7229 62.5,86.5C 78.3609,72.9636 96.3609,69.2969 116.5,75.5 Z"/></g>
<g><path style="opacity:1" fill="#bedff3" d="M 189.5,61.5 C 193.985,61.8839 198.652,62.0506 203.5,62C 204.701,62.9025 205.535,64.0692 206,65.5C 206.498,68.8168 206.665,72.1501 206.5,75.5C 206.5,99.1667 206.5,122.833 206.5,146.5C 206.5,159.167 206.5,171.833 206.5,184.5C 206.667,195.838 206.5,207.172 206,218.5C 205.292,219.381 204.458,220.047 203.5,220.5C 204.423,213.891 204.756,207.224 204.5,200.5C 204.667,179.497 204.5,158.497 204,137.5C 203.303,135.416 202.136,133.749 200.5,132.5C 200.5,129.833 200.5,127.167 200.5,124.5C 202.234,126.09 203.4,128.09 204,130.5C 204.667,108.5 204.667,86.5 204,64.5C 203.184,63.1772 202.017,62.5106 200.5,62.5C 199.167,62.5 197.833,62.5 196.5,62.5C 196.5,66.1667 196.5,69.8333 196.5,73.5C 194.621,72.6586 192.621,72.3253 190.5,72.5C 190.5,99.5 190.5,126.5 190.5,153.5C 190.5,166.833 190.5,180.167 190.5,193.5C 190.666,203.839 190.5,214.172 190,224.5C 189.626,225.416 189.126,226.25 188.5,227C 186.19,227.497 183.857,227.663 181.5,227.5C 183.292,226.691 185.292,226.191 187.5,226C 188.337,224.989 188.67,223.822 188.5,222.5C 189.664,195.336 189.83,168.003 189,140.5C 186.888,137.273 185.055,133.94 183.5,130.5C 183.215,128.712 183.548,127.045 184.5,125.5C 185.667,127.167 186.833,128.833 188,130.5C 188.168,107.33 188.668,84.3297 189.5,61.5 Z"/></g>
<g><path style="opacity:0.506" fill="#aaddfb" d="M 200.5,62.5 C 202.017,62.5106 203.184,63.1772 204,64.5C 204.667,86.5 204.667,108.5 204,130.5C 203.4,128.09 202.234,126.09 200.5,124.5C 200.5,103.833 200.5,83.1667 200.5,62.5 Z"/></g>
<g><path style="opacity:1" fill="#5cafe1" d="M 172.5,71.5 C 174.5,71.5 176.5,71.5 178.5,71.5C 178.5,89.5 178.5,107.5 178.5,125.5C 178.5,136.833 178.5,148.167 178.5,159.5C 176.5,159.833 174.5,160.167 172.5,160.5C 172.5,130.833 172.5,101.167 172.5,71.5 Z"/></g>
<g><path style="opacity:1" fill="#5daedf" d="M 196.5,73.5 C 196.5,91.1667 196.5,108.833 196.5,126.5C 196.5,135.167 196.5,143.833 196.5,152.5C 194.621,153.341 192.621,153.675 190.5,153.5C 190.5,126.5 190.5,99.5 190.5,72.5C 192.621,72.3253 194.621,72.6586 196.5,73.5 Z"/></g>
<g><path style="opacity:0.877" fill="#5bafe1" d="M 206.5,75.5 C 208.621,75.3253 210.621,75.6586 212.5,76.5C 212.5,99.1667 212.5,121.833 212.5,144.5C 210.858,146.081 208.858,146.747 206.5,146.5C 206.5,122.833 206.5,99.1667 206.5,75.5 Z"/></g>
<g><path style="opacity:0.946" fill="#acbdd1" d="M 165.5,132.5 C 163.737,129.98 161.737,127.647 159.5,125.5C 154.241,103.397 141.575,86.8969 121.5,76C 119.866,75.5065 118.199,75.3398 116.5,75.5C 96.3609,69.2969 78.3609,72.9636 62.5,86.5C 61.5,87.1667 60.5,87.8333 59.5,88.5C 59.5,87.8333 59.1667,87.5 58.5,87.5C 63.4755,83.0134 68.8089,79.0134 74.5,75.5C 89.191,69.8946 104.191,69.0613 119.5,73C 147.007,83.3493 162.341,103.183 165.5,132.5 Z"/></g>
<g><path style="opacity:0.753" fill="#aadcfa" d="M 186.5,59.5 C 187.71,59.9321 188.71,60.5987 189.5,61.5C 188.668,84.3297 188.168,107.33 188,130.5C 186.833,128.833 185.667,127.167 184.5,125.5C 183.548,127.045 183.215,128.712 183.5,130.5C 183.167,130.5 182.833,130.5 182.5,130.5C 182.827,106.925 182.494,83.4251 181.5,60C 183.134,59.5065 184.801,59.3398 186.5,59.5 Z"/></g>
<g><path style="opacity:0.796" fill="#85b1cf" d="M 169.5,56.5 C 172.167,56.5 174.833,56.5 177.5,56.5C 177.5,57.1667 177.833,57.5 178.5,57.5C 181.167,58.1667 183.833,58.8333 186.5,59.5C 184.801,59.3398 183.134,59.5065 181.5,60C 182.494,83.4251 182.827,106.925 182.5,130.5C 182.251,160.179 182.585,189.846 183.5,219.5C 185.167,219.5 186.833,219.5 188.5,219.5C 188.5,220.5 188.5,221.5 188.5,222.5C 188.67,223.822 188.337,224.989 187.5,226C 185.292,226.191 183.292,226.691 181.5,227.5C 180.5,227.5 179.5,227.5 178.5,227.5C 178.5,226.5 178.5,225.5 178.5,224.5C 179.833,224.5 181.167,224.5 182.5,224.5C 181.843,216.519 181.343,208.519 181,200.5C 180.667,153.833 180.333,107.167 180,60.5C 179.832,82.3372 179.332,104.004 178.5,125.5C 178.5,107.5 178.5,89.5 178.5,71.5C 176.5,71.5 174.5,71.5 172.5,71.5C 172.5,69.8333 172.5,68.1667 172.5,66.5C 174.5,66.5 176.5,66.5 178.5,66.5C 178.5,64.5 178.5,62.5 178.5,60.5C 174.425,61.341 171.425,60.0076 169.5,56.5 Z"/></g>
<g><path style="opacity:0.44" fill="#96d3f7" d="M 32.5,60.5 C 32.5386,61.7562 32.0386,62.7562 31,63.5C 30.1676,74.5151 30.3342,85.5151 31.5,96.5C 36.8603,93.3166 42.527,90.9832 48.5,89.5C 50.941,88.2437 53.2743,88.2437 55.5,89.5C 37.1061,111.299 31.9394,135.966 40,163.5C 40.3826,162.944 40.8826,162.611 41.5,162.5C 41.3284,163.492 41.6618,164.158 42.5,164.5C 44.5819,172.664 48.2485,179.997 53.5,186.5C 53.5,187.167 53.5,187.833 53.5,188.5C 52.1733,187.2 50.84,185.867 49.5,184.5C 48.3356,191.476 48.1689,198.476 49,205.5C 49.2735,207.329 50.1068,208.829 51.5,210C 44.9184,210.81 38.4184,210.643 32,209.5C 31.0556,172.17 30.2223,134.837 29.5,97.5C 27.9713,98.7629 26.3046,99.7629 24.5,100.5C 24.3335,88.1622 24.5001,75.8288 25,63.5C 26.8484,60.9586 29.3484,59.9586 32.5,60.5 Z"/></g>
<g><path style="opacity:1" fill="#f68d2a" d="M 62.5,86.5 C 85.5305,84.7229 107.197,89.0562 127.5,99.5C 120.334,101.026 113.501,103.026 107,105.5C 106.667,105.167 106.333,104.833 106,104.5C 105.818,106.33 106.318,107.997 107.5,109.5C 103.896,106.748 99.8956,104.581 95.5,103C 94.6361,100.929 93.3028,99.262 91.5,98C 85.7233,96.356 80.0566,96.1894 74.5,97.5C 71.909,98.2543 70.0757,99.921 69,102.5C 68.5008,107.155 68.3342,111.821 68.5,116.5C 64.9179,117.604 61.4179,118.938 58,120.5C 57.6667,119.833 57.3333,119.167 57,118.5C 54.3914,119.996 51.7247,121.662 49,123.5C 47.7318,123.384 46.3985,123.051 45,122.5C 44.1597,125.464 43.1597,125.797 42,123.5C 41.6174,124.056 41.1174,124.389 40.5,124.5C 43.1578,110.516 49.4911,98.5159 59.5,88.5C 60.5,87.8333 61.5,87.1667 62.5,86.5 Z"/></g>
<g><path style="opacity:1" fill="#fefcfb" d="M 74.5,97.5 C 77.7935,97.259 80.7935,98.0924 83.5,100C 100.833,111.667 118.167,123.333 135.5,135C 137.734,136.638 139.067,138.805 139.5,141.5C 139.654,145.025 138.321,147.859 135.5,150C 117.5,161.333 99.5,172.667 81.5,184C 79.5273,184.495 77.5273,184.662 75.5,184.5C 71.9018,182.674 69.7351,179.674 69,175.5C 68.5004,168.842 68.3337,162.175 68.5,155.5C 68.5,142.5 68.5,129.5 68.5,116.5C 68.3342,111.821 68.5008,107.155 69,102.5C 70.0757,99.921 71.909,98.2543 74.5,97.5 Z"/></g>
<g><path style="opacity:1" fill="#729ebd" d="M 58.5,87.5 C 59.1667,87.5 59.5,87.8333 59.5,88.5C 49.4911,98.5159 43.1578,110.516 40.5,124.5C 37.6951,137.127 38.0284,149.793 41.5,162.5C 40.8826,162.611 40.3826,162.944 40,163.5C 31.9394,135.966 37.1061,111.299 55.5,89.5C 56.5,88.8333 57.5,88.1667 58.5,87.5 Z"/></g>
<g><path style="opacity:1" fill="#f79d54" d="M 74.5,97.5 C 80.0566,96.1894 85.7233,96.356 91.5,98C 93.3028,99.262 94.6361,100.929 95.5,103C 99.8956,104.581 103.896,106.748 107.5,109.5C 115.716,115.862 124.383,121.695 133.5,127C 135.884,129.385 138.55,131.385 141.5,133C 142.823,133.816 143.489,134.983 143.5,136.5C 143.5,138.167 143.5,139.833 143.5,141.5C 142.167,141.5 140.833,141.5 139.5,141.5C 139.067,138.805 137.734,136.638 135.5,135C 118.167,123.333 100.833,111.667 83.5,100C 80.7935,98.0924 77.7935,97.259 74.5,97.5 Z"/></g>
<g><path style="opacity:1" fill="#f58329" d="M 127.5,99.5 C 137.86,104.685 147.194,111.351 155.5,119.5C 157.131,124.024 158.131,128.691 158.5,133.5C 157.71,132.391 157.21,131.058 157,129.5C 156.667,129.833 156.333,130.167 156,130.5C 155.692,129.692 155.192,129.025 154.5,128.5C 153.304,128.846 153.304,129.346 154.5,130C 152.555,129.872 150.722,130.038 149,130.5C 148.692,129.692 148.192,129.025 147.5,128.5C 146.269,129.651 146.269,130.817 147.5,132C 146.551,132.617 145.718,132.451 145,131.5C 144.833,132 144.667,132.5 144.5,133C 145.768,137.311 145.768,141.478 144.5,145.5C 144.81,142.287 144.477,139.287 143.5,136.5C 143.489,134.983 142.823,133.816 141.5,133C 138.55,131.385 135.884,129.385 133.5,127C 124.383,121.695 115.716,115.862 107.5,109.5C 106.318,107.997 105.818,106.33 106,104.5C 106.333,104.833 106.667,105.167 107,105.5C 113.501,103.026 120.334,101.026 127.5,99.5 Z"/></g>
<g><path style="opacity:1" fill="#f58227" d="M 68.5,116.5 C 68.5,129.5 68.5,142.5 68.5,155.5C 67.8826,155.389 67.3826,155.056 67,154.5C 62.4351,155.748 58.1017,157.414 54,159.5C 52.8525,158.542 51.8525,158.875 51,160.5C 49.8525,159.542 48.8525,159.875 48,161.5C 47.586,161.043 47.086,160.709 46.5,160.5C 44.7996,161.61 43.4663,162.943 42.5,164.5C 41.6618,164.158 41.3284,163.492 41.5,162.5C 38.0284,149.793 37.6951,137.127 40.5,124.5C 41.1174,124.389 41.6174,124.056 42,123.5C 43.1597,125.797 44.1597,125.464 45,122.5C 46.3985,123.051 47.7318,123.384 49,123.5C 51.7247,121.662 54.3914,119.996 57,118.5C 57.3333,119.167 57.6667,119.833 58,120.5C 61.4179,118.938 64.9179,117.604 68.5,116.5 Z"/></g>
<g><path style="opacity:1" fill="#f27526" d="M 158.5,133.5 C 158.666,140.508 158.5,147.508 158,154.5C 157.594,157.742 156.761,160.742 155.5,163.5C 155.44,162.957 155.107,162.624 154.5,162.5C 148.597,163.672 142.763,165.672 137,168.5C 136.667,168.167 136.333,167.833 136,167.5C 125.792,171.719 114.958,175.219 103.5,178C 97.6306,182.721 90.964,185.221 83.5,185.5C 99.1268,177.846 114.46,169.346 129.5,160C 133.156,156.837 137.156,154.171 141.5,152C 142.914,150.007 143.914,147.84 144.5,145.5C 145.768,141.478 145.768,137.311 144.5,133C 144.667,132.5 144.833,132 145,131.5C 145.718,132.451 146.551,132.617 147.5,132C 146.269,130.817 146.269,129.651 147.5,128.5C 148.192,129.025 148.692,129.692 149,130.5C 150.722,130.038 152.555,129.872 154.5,130C 153.304,129.346 153.304,128.846 154.5,128.5C 155.192,129.025 155.692,129.692 156,130.5C 156.333,130.167 156.667,129.833 157,129.5C 157.21,131.058 157.71,132.391 158.5,133.5 Z"/></g>
<g><path style="opacity:1" fill="#f48e4d" d="M 143.5,136.5 C 144.477,139.287 144.81,142.287 144.5,145.5C 143.914,147.84 142.914,150.007 141.5,152C 137.156,154.171 133.156,156.837 129.5,160C 114.46,169.346 99.1268,177.846 83.5,185.5C 81.1667,185.5 78.8333,185.5 76.5,185.5C 75.8333,185.5 75.5,185.167 75.5,184.5C 77.5273,184.662 79.5273,184.495 81.5,184C 99.5,172.667 117.5,161.333 135.5,150C 138.321,147.859 139.654,145.025 139.5,141.5C 140.833,141.5 142.167,141.5 143.5,141.5C 143.5,139.833 143.5,138.167 143.5,136.5 Z"/></g>
<g><path style="opacity:0.913" fill="#8ba3b9" d="M 159.5,125.5 C 161.737,127.647 163.737,129.98 165.5,132.5C 166.11,133.391 166.443,134.391 166.5,135.5C 167.962,164.745 156.629,187.245 132.5,203C 128.884,204.811 125.217,206.311 121.5,207.5C 119.958,208.301 118.292,208.634 116.5,208.5C 141.905,198.564 156.405,179.897 160,152.5C 160.681,143.477 160.514,134.477 159.5,125.5 Z"/></g>
<g><path style="opacity:1" fill="#7cc2e9" d="M 212.5,144.5 C 212.5,156.5 212.5,168.5 212.5,180.5C 210.228,181.441 208.228,182.774 206.5,184.5C 206.5,171.833 206.5,159.167 206.5,146.5C 208.858,146.747 210.858,146.081 212.5,144.5 Z"/></g>
<g><path style="opacity:1" fill="#7ac0e7" d="M 196.5,152.5 C 196.5,164.833 196.5,177.167 196.5,189.5C 194.5,190.833 192.5,192.167 190.5,193.5C 190.5,180.167 190.5,166.833 190.5,153.5C 192.621,153.675 194.621,153.341 196.5,152.5 Z"/></g>
<g><path style="opacity:1" fill="#f16c24" d="M 155.5,163.5 C 149.495,185.672 135.495,200.172 113.5,207C 92.6447,212.122 74.6447,207.289 59.5,192.5C 59.8634,190.223 60.8634,189.556 62.5,190.5C 67.381,189.124 72.0476,187.457 76.5,185.5C 78.8333,185.5 81.1667,185.5 83.5,185.5C 90.964,185.221 97.6306,182.721 103.5,178C 114.958,175.219 125.792,171.719 136,167.5C 136.333,167.833 136.667,168.167 137,168.5C 142.763,165.672 148.597,163.672 154.5,162.5C 155.107,162.624 155.44,162.957 155.5,163.5 Z"/></g>
<g><path style="opacity:1" fill="#7ac1e8" d="M 178.5,159.5 C 178.5,172.833 178.5,186.167 178.5,199.5C 176.228,200.441 174.228,201.774 172.5,203.5C 172.5,189.167 172.5,174.833 172.5,160.5C 174.5,160.167 176.5,159.833 178.5,159.5 Z"/></g>
<g><path style="opacity:0.576" fill="#62869e" d="M 196.5,126.5 C 197.117,126.611 197.617,126.944 198,127.5C 198.167,142.667 198.333,157.833 198.5,173C 198.499,188.515 197.833,203.682 196.5,218.5C 196.5,208.833 196.5,199.167 196.5,189.5C 196.5,177.167 196.5,164.833 196.5,152.5C 196.5,143.833 196.5,135.167 196.5,126.5 Z"/></g>
<g><path style="opacity:0.439" fill="#93d3fa" d="M 200.5,132.5 C 202.136,133.749 203.303,135.416 204,137.5C 204.5,158.497 204.667,179.497 204.5,200.5C 203.167,200.5 201.833,200.5 200.5,200.5C 200.5,177.833 200.5,155.167 200.5,132.5 Z"/></g>
<g><path style="opacity:1" fill="#f27626" d="M 68.5,155.5 C 68.3337,162.175 68.5004,168.842 69,175.5C 69.7351,179.674 71.9018,182.674 75.5,184.5C 75.5,185.167 75.8333,185.5 76.5,185.5C 72.0476,187.457 67.381,189.124 62.5,190.5C 60.8634,189.556 59.8634,190.223 59.5,192.5C 57.5,190.5 55.5,188.5 53.5,186.5C 48.2485,179.997 44.5819,172.664 42.5,164.5C 43.4663,162.943 44.7996,161.61 46.5,160.5C 47.086,160.709 47.586,161.043 48,161.5C 48.8525,159.875 49.8525,159.542 51,160.5C 51.8525,158.875 52.8525,158.542 54,159.5C 58.1017,157.414 62.4351,155.748 67,154.5C 67.3826,155.056 67.8826,155.389 68.5,155.5 Z"/></g>
<g><path style="opacity:0.518" fill="#7ca7c4" d="M 200.5,62.5 C 200.5,83.1667 200.5,103.833 200.5,124.5C 200.5,127.167 200.5,129.833 200.5,132.5C 200.5,155.167 200.5,177.833 200.5,200.5C 201.833,200.5 203.167,200.5 204.5,200.5C 204.756,207.224 204.423,213.891 203.5,220.5C 201.393,221.468 199.059,221.802 196.5,221.5C 196.5,220.5 196.5,219.5 196.5,218.5C 197.833,203.682 198.499,188.515 198.5,173C 198.333,157.833 198.167,142.667 198,127.5C 197.617,126.944 197.117,126.611 196.5,126.5C 196.5,108.833 196.5,91.1667 196.5,73.5C 196.5,69.8333 196.5,66.1667 196.5,62.5C 197.833,62.5 199.167,62.5 200.5,62.5 Z"/></g>
<g><path style="opacity:0.824" fill="#98d4f7" d="M 166.5,135.5 C 168.412,137.657 170.079,139.991 171.5,142.5C 171.831,171.671 171.498,200.671 170.5,229.5C 170.5,228.5 170.5,227.5 170.5,226.5C 170.5,221.833 170.5,217.167 170.5,212.5C 158.823,212.296 147.156,211.796 135.5,211C 130.428,210.429 125.761,209.262 121.5,207.5C 125.217,206.311 128.884,204.811 132.5,203C 156.629,187.245 167.962,164.745 166.5,135.5 Z"/></g>
<g><path style="opacity:0.996" fill="#f3efed" d="M 116.5,75.5 C 118.199,75.3398 119.866,75.5065 121.5,76C 141.575,86.8969 154.241,103.397 159.5,125.5C 160.514,134.477 160.681,143.477 160,152.5C 156.405,179.897 141.905,198.564 116.5,208.5C 92.1558,214.826 71.4892,208.826 54.5,190.5C 54.1667,189.833 53.8333,189.167 53.5,188.5C 53.5,187.833 53.5,187.167 53.5,186.5C 55.5,188.5 57.5,190.5 59.5,192.5C 74.6447,207.289 92.6447,212.122 113.5,207C 135.495,200.172 149.495,185.672 155.5,163.5C 156.761,160.742 157.594,157.742 158,154.5C 158.5,147.508 158.666,140.508 158.5,133.5C 158.131,128.691 157.131,124.024 155.5,119.5C 148.745,99.09 135.745,84.4234 116.5,75.5 Z"/></g>
<g><path style="opacity:0.082" fill="#010101" d="M 212.5,196.5 C 222.594,197.307 232.594,198.807 242.5,201C 247.381,203.621 247.714,206.788 243.5,210.5C 220.414,221.364 196.581,230.364 172,237.5C 170.744,237.352 169.577,237.018 168.5,236.5C 168.5,236.167 168.5,235.833 168.5,235.5C 173.14,235.519 176.473,233.519 178.5,229.5C 182.796,228.672 187.129,228.172 191.5,228C 193.833,227 195.5,225.333 196.5,223C 200.918,222.792 205.251,222.126 209.5,221C 210.46,219.581 211.293,218.081 212,216.5C 212.5,209.842 212.666,203.175 212.5,196.5 Z"/></g>
<g><path style="opacity:0.693" fill="#93cff5" d="M 182.5,130.5 C 182.833,130.5 183.167,130.5 183.5,130.5C 185.055,133.94 186.888,137.273 189,140.5C 189.83,168.003 189.664,195.336 188.5,222.5C 188.5,221.5 188.5,220.5 188.5,219.5C 186.833,219.5 185.167,219.5 183.5,219.5C 182.585,189.846 182.251,160.179 182.5,130.5 Z"/></g>
<g><path style="opacity:0.894" fill="#7cbde7" d="M 53.5,188.5 C 53.8333,189.167 54.1667,189.833 54.5,190.5C 54.9625,195.162 55.4625,199.829 56,204.5C 59.5933,207.481 63.7599,209.315 68.5,210C 92.0607,212.708 115.394,216.542 138.5,221.5C 118.068,219.367 97.7348,216.534 77.5,213C 67.1667,212.333 56.8333,212.333 46.5,213C 46.0426,213.414 45.7093,213.914 45.5,214.5C 46.6667,214.833 47.8333,215.167 49,215.5C 70.0595,217.913 90.8929,220.913 111.5,224.5C 104.811,224.116 98.1446,223.449 91.5,222.5C 89.8333,222.667 88.1667,222.833 86.5,223C 89.7974,223.204 92.7974,224.037 95.5,225.5C 81.6479,223.855 67.9812,221.855 54.5,219.5C 54.2089,218.351 53.3756,217.684 52,217.5C 44.4806,216.463 36.9806,215.296 29.5,214C 27.714,213.215 26.214,212.049 25,210.5C 24.5,173.835 24.3333,137.168 24.5,100.5C 26.3046,99.7629 27.9713,98.7629 29.5,97.5C 30.2223,134.837 31.0556,172.17 32,209.5C 38.4184,210.643 44.9184,210.81 51.5,210C 50.1068,208.829 49.2735,207.329 49,205.5C 48.1689,198.476 48.3356,191.476 49.5,184.5C 50.84,185.867 52.1733,187.2 53.5,188.5 Z"/></g>
<g><path style="opacity:0.775" fill="#6e9bb7" d="M 178.5,224.5 C 178.5,216.167 178.5,207.833 178.5,199.5C 178.5,186.167 178.5,172.833 178.5,159.5C 178.5,148.167 178.5,136.833 178.5,125.5C 179.332,104.004 179.832,82.3372 180,60.5C 180.333,107.167 180.667,153.833 181,200.5C 181.343,208.519 181.843,216.519 182.5,224.5C 181.167,224.5 179.833,224.5 178.5,224.5 Z"/></g>
<g><path style="opacity:0.008" fill="#000000" d="M 23.5,211.5 C 24.1667,212.833 24.8333,214.167 25.5,215.5C 24.6236,215.631 23.9569,215.298 23.5,214.5C 22.3473,213.313 22.3473,212.313 23.5,211.5 Z"/></g>
<g><path style="opacity:0.793" fill="#87c5ec" d="M 54.5,190.5 C 71.4892,208.826 92.1558,214.826 116.5,208.5C 118.292,208.634 119.958,208.301 121.5,207.5C 125.761,209.262 130.428,210.429 135.5,211C 147.156,211.796 158.823,212.296 170.5,212.5C 170.5,217.167 170.5,221.833 170.5,226.5C 159.502,226.121 148.835,224.454 138.5,221.5C 115.394,216.542 92.0607,212.708 68.5,210C 63.7599,209.315 59.5933,207.481 56,204.5C 55.4625,199.829 54.9625,195.162 54.5,190.5 Z"/></g>
<g><path style="opacity:0.119" fill="#201d1e" d="M 27.5,216.5 C 36.471,217.746 45.471,218.746 54.5,219.5C 67.9812,221.855 81.6479,223.855 95.5,225.5C 115.473,228.33 135.473,230.997 155.5,233.5C 156.167,233.5 156.833,233.5 157.5,233.5C 160.974,234.525 164.64,235.192 168.5,235.5C 168.5,235.833 168.5,236.167 168.5,236.5C 122.08,231.464 75.7467,225.631 29.5,219C 28.244,218.583 27.5774,217.75 27.5,216.5 Z"/></g>
<g><path style="opacity:0.552" fill="#77aed2" d="M 138.5,221.5 C 148.835,224.454 159.502,226.121 170.5,226.5C 170.5,227.5 170.5,228.5 170.5,229.5C 170.047,230.458 169.381,231.292 168.5,232C 164.49,232.357 160.49,232.19 156.5,231.5C 141.493,229.249 126.493,226.916 111.5,224.5C 90.8929,220.913 70.0595,217.913 49,215.5C 47.8333,215.167 46.6667,214.833 45.5,214.5C 45.7093,213.914 46.0426,213.414 46.5,213C 56.8333,212.333 67.1667,212.333 77.5,213C 97.7348,216.534 118.068,219.367 138.5,221.5 Z"/></g>
<g><path style="opacity:0.999" fill="#428bbd" d="M 212.5,180.5 C 212.5,185.833 212.5,191.167 212.5,196.5C 212.666,203.175 212.5,209.842 212,216.5C 211.293,218.081 210.46,219.581 209.5,221C 205.251,222.126 200.918,222.792 196.5,223C 195.5,225.333 193.833,227 191.5,228C 187.129,228.172 182.796,228.672 178.5,229.5C 176.473,233.519 173.14,235.519 168.5,235.5C 164.64,235.192 160.974,234.525 157.5,233.5C 161.846,233.666 166.179,233.499 170.5,233C 171.126,232.25 171.626,231.416 172,230.5C 172.5,221.506 172.666,212.506 172.5,203.5C 174.228,201.774 176.228,200.441 178.5,199.5C 178.5,207.833 178.5,216.167 178.5,224.5C 178.5,225.5 178.5,226.5 178.5,227.5C 179.5,227.5 180.5,227.5 181.5,227.5C 183.857,227.663 186.19,227.497 188.5,227C 189.126,226.25 189.626,225.416 190,224.5C 190.5,214.172 190.666,203.839 190.5,193.5C 192.5,192.167 194.5,190.833 196.5,189.5C 196.5,199.167 196.5,208.833 196.5,218.5C 196.5,219.5 196.5,220.5 196.5,221.5C 199.059,221.802 201.393,221.468 203.5,220.5C 204.458,220.047 205.292,219.381 206,218.5C 206.5,207.172 206.667,195.838 206.5,184.5C 208.228,182.774 210.228,181.441 212.5,180.5 Z"/></g>
<g><path style="opacity:1" fill="#95c0de" d="M 111.5,224.5 C 126.493,226.916 141.493,229.249 156.5,231.5C 153.075,231.367 152.742,232.033 155.5,233.5C 135.473,230.997 115.473,228.33 95.5,225.5C 92.7974,224.037 89.7974,223.204 86.5,223C 88.1667,222.833 89.8333,222.667 91.5,222.5C 98.1446,223.449 104.811,224.116 111.5,224.5 Z"/></g>
</svg>
